<svg id="Capa_1" data-name="Capa 1" xmlns="http://www.w3.org/2000/svg" viewBox="0 0 180 50"><path d="M16.12,29.68A6.13,6.13,0,0,1,15.37,33c-1.19,2-3.27,3.12-6.24,3.23a9.61,9.61,0,0,1-4.45-1L4.73,31c.27.22.62.48,1,.78a4.38,4.38,0,0,0,2.59.81q3.81,0,3.81-2.85v-.05a2.44,2.44,0,0,0-1.39-2.14A14.32,14.32,0,0,0,8,26.43c-.54-.17-1.12-.37-1.74-.61A6.12,6.12,0,0,1,3,20.25v-.17a6,6,0,0,1,.88-3.14,6.29,6.29,0,0,1,2.33-2.28,6.73,6.73,0,0,1,3.14-.88,9.31,9.31,0,0,1,4.27.89v4a5.59,5.59,0,0,0-3.88-1.31,2.94,2.94,0,0,0-1.62.47A2.34,2.34,0,0,0,7,19.91c0,1.27.88,2.18,2.66,2.74l1.89.61A6.29,6.29,0,0,1,15,25.52a7.47,7.47,0,0,1,1.14,4.16" fill="#fff"/><polygon points="32.95 35.86 29.35 35.86 29.35 25.3 22.23 25.3 22.23 35.86 18.63 35.86 18.63 13.78 22.23 13.78 22.23 21.38 29.35 21.38 29.35 13.78 32.95 13.78 32.95 35.86" fill="#fff"/><rect x="35.46" y="13.78" width="3.6" height="22.08" fill="#fff"/><path d="M54.58,35.86H51V32.4a3.66,3.66,0,0,0-1-2.65,3.35,3.35,0,0,0-2.52-1.06H45.17v7.17h-3.6V13.78h5.89a6.7,6.7,0,0,1,5.06,2.16,7.42,7.42,0,0,1,2.06,5.31,7.29,7.29,0,0,1-2.4,5.58,7.28,7.28,0,0,1,2.4,5.58ZM51,21.25a3.58,3.58,0,0,0-1-2.63,3.35,3.35,0,0,0-2.52-1.07H45.17v7.37h2.26a3.31,3.31,0,0,0,2.51-1.06,3.76,3.76,0,0,0,1-2.61" fill="#fff"/><path d="M71.38,35.86H67.73V27.1h-7v8.76h-3.6V21.25a7.37,7.37,0,0,1,2.06-5.31A7,7,0,0,1,69.3,16a7.37,7.37,0,0,1,2.08,5.3Zm-3.65-12v-2.6a3.59,3.59,0,0,0-1-2.6,3.29,3.29,0,0,0-2.48-1.08,3.38,3.38,0,0,0-2.51,1.08,3.62,3.62,0,0,0-1,2.6v2.6Z" fill="#fff"/><path d="M102.72,24.79a10.77,10.77,0,0,1-3,7.85,10.1,10.1,0,0,1-7.52,3.25l-6.61,0V13.78h6.56A10,10,0,0,1,99.6,17a11.18,11.18,0,0,1,3.12,7.81m-3.6,0a7.36,7.36,0,0,0-2-5.17,6.6,6.6,0,0,0-5-2.1h-3V32.11h3a6.68,6.68,0,0,0,5-2.13,7.07,7.07,0,0,0,2-5.16" fill="#fff"/><polygon points="115.06 35.86 105.22 35.86 105.22 13.78 115.06 13.78 115.06 17.04 108.83 17.04 108.83 21.38 115.06 21.38 115.06 25.3 108.83 25.3 108.83 32.59 115.06 32.59 115.06 35.86" fill="#fff"/><path d="M130.7,29.68A6.22,6.22,0,0,1,130,33c-1.2,2-3.28,3.12-6.25,3.23a9.66,9.66,0,0,1-4.45-1l0-4.21c.27.22.62.48,1,.78a4.4,4.4,0,0,0,2.59.81c2.54,0,3.82-.95,3.82-2.85v-.05a2.44,2.44,0,0,0-1.39-2.14,15,15,0,0,0-2.78-1.07c-.52-.17-1.1-.37-1.72-.61a6.11,6.11,0,0,1-3.29-5.57v-.17a6.06,6.06,0,0,1,.88-3.14,6.39,6.39,0,0,1,2.34-2.28,6.7,6.7,0,0,1,3.13-.88,9.24,9.24,0,0,1,4.26.89v4a5.55,5.55,0,0,0-3.87-1.31,2.94,2.94,0,0,0-1.62.47,2.32,2.32,0,0,0-1.14,2.11c0,1.27.89,2.18,2.66,2.74l1.9.61a6.29,6.29,0,0,1,3.45,2.26,7.64,7.64,0,0,1,1.14,4.16" fill="#fff"/><rect x="133.21" y="13.78" width="3.59" height="22.08" fill="#fff"/><path d="M156.45,34a10.09,10.09,0,0,1-6.39,2.23A10.22,10.22,0,0,1,142.43,33a11.1,11.1,0,0,1-3.13-8,11.1,11.1,0,0,1,3.13-8,10.16,10.16,0,0,1,7.63-3.26,10,10,0,0,1,3.55.64v4.1a6.9,6.9,0,0,0-3.55-1A6.77,6.77,0,0,0,145,19.7,7.42,7.42,0,0,0,142.91,25,7.32,7.32,0,0,0,145,30.3a6.8,6.8,0,0,0,5.07,2.16,6.68,6.68,0,0,0,2.8-.62V25.31h3.59Z" fill="#fff"/><polygon points="177 35.86 162.51 22.26 162.51 35.86 158.91 35.86 158.91 13.79 173.5 27.63 173.5 13.78 177 13.78 177 35.86" fill="#fff"/></svg>